<?xml version="1.0" encoding="UTF-8"?>
<svg width="117px" height="51px" viewBox="0 0 117 51" version="1.1" xmlns="http://www.w3.org/2000/svg" xmlns:xlink="http://www.w3.org/1999/xlink" xmlns:sketch="http://www.bohemiancoding.com/sketch/ns">
    <!-- Generator: Sketch 3.4.2 (15855) - http://www.bohemiancoding.com/sketch -->
    <title>Artboard 1</title>
    <desc>Created with Sketch.</desc>
    <defs></defs>
    <g id="Page-1" stroke="none" stroke-width="1" fill="none" fill-rule="evenodd" sketch:type="MSPage">
        <g id="Artboard-1" sketch:type="MSArtboardGroup" fill="#000000">
            <g id="ballast_logo" sketch:type="MSLayerGroup" transform="translate(4.000000, 5.000000)">
                <path d="M6.1,12.87 C2.42,15.24 1.65,20.63 4.28,24.24 C4.82731149,23.5664458 5.31577252,22.8471368 5.74,22.09 L15.96,4.45 C17.68,1.45 20.16,-2.3869795e-15 22.23,-2.3869795e-15 C29.78,-2.3869795e-15 29.23,9.59 21.54,12.18 C28.83,17.02 23.54,30.62 12.25,30.62 C-1.04,30.62 -3.38,16 4.57,10.93 L6.1,12.87 Z M15.96,12.76 L14.96,12.65 L8.58,23.65 C8.02636574,24.5979629 7.39414686,25.4977876 6.69,26.34 C8.36153872,27.2543396 10.245379,27.7097735 12.15,27.66 C21.34,27.71 24.88,14.62 15.96,12.76 L15.96,12.76 Z M16.22,10.43 C20.08,10.35 22.22,9.52 23.69,6.78 C25.58,3.21 22.05,0.4 19.28,5.18 L16.22,10.43 Z" id="Shape" sketch:type="MSShapeGroup"></path>
                <path d="M44.71,20.2 C45.3048233,20.4831591 45.799902,20.9398867 46.13,21.51 C42.99,25.15 39.39,28.51 36.25,28.51 C34.32,28.51 33.15,27.51 32.97,26.03 C31.15,27.52 29.25,28.51 27.72,28.51 C24.66,28.51 23.53,25.92 25.13,23.11 L30.46,13.93 C32.06,11.16 34.9,9.55 36.94,9.55 C39.0844175,9.54806248 40.8488631,11.2375191 40.94,13.38 L43.09,13.38 L36.96,24.1 C36.09,25.59 36.56,26.17 37.4,26.17 C39.08,26.17 41.74,23.66 44.47,20.49 L44.71,20.2 Z M28.41,24.1 C27.54,25.59 28.01,26.17 28.85,26.17 C30.42,26.17 32.68,24.46 34.98,20.85 L37.96,15.68 C39.82,12.25 35.77,11.34 33.73,14.87 L28.41,24.1 Z" id="Shape" sketch:type="MSShapeGroup"></path>
                <path d="M53.96,20.2 C54.5566264,20.4804864 55.0524211,20.9378744 55.38,21.51 C52.25,25.15 48.64,28.51 45.5,28.51 C42.36,28.51 41.32,25.93 42.96,23.11 L55.17,1.93 L58.96,1.93 L46.2,24.1 C45.33,25.59 45.8,26.17 46.64,26.17 C48.32,26.17 50.98,23.66 53.71,20.49 L53.96,20.2 Z" id="Shape" sketch:type="MSShapeGroup"></path>
                <path d="M63.23,20.2 C63.8248233,20.4831591 64.319902,20.9398867 64.65,21.51 C61.51,25.15 57.91,28.51 54.77,28.51 C51.63,28.51 50.58,25.92 52.18,23.11 L64.43,1.93 L68.22,1.93 L55.46,24.1 C54.59,25.59 55.06,26.17 55.9,26.17 C57.58,26.17 60.24,23.66 62.97,20.49 L63.23,20.2 Z" id="Shape" sketch:type="MSShapeGroup"></path>
                <path d="M81.02,20.2 C81.6148233,20.4831591 82.109902,20.9398867 82.44,21.51 C79.3,25.15 75.69,28.51 72.56,28.51 C70.63,28.51 69.46,27.51 69.28,26.03 C67.46,27.52 65.56,28.51 64.03,28.51 C60.97,28.51 59.84,25.92 61.44,23.11 L66.76,13.93 C68.37,11.16 71.21,9.55 73.25,9.55 C75.3944175,9.54806248 77.1588631,11.2375191 77.25,13.38 L79.4,13.38 L73.25,24.1 C72.38,25.59 72.85,26.17 73.69,26.17 C75.37,26.17 78.03,23.66 80.76,20.49 L81.02,20.2 Z M64.72,24.1 C63.85,25.59 64.32,26.17 65.16,26.17 C66.73,26.17 68.99,24.46 71.28,20.85 L74.28,15.68 C76.14,12.25 72.09,11.34 70.05,14.87 L64.72,24.1 Z" id="Shape" sketch:type="MSShapeGroup"></path>
                <path d="M79.27,25.45 L81.64,24.21 C81.9176779,24.9746871 82.6102421,25.5116189 83.42,25.59 C87.03,25.59 86.23,18.52 87.73,14.59 C86.38,16.38 84.48,19.04 82.33,21.52 C81.8016375,21.1610528 81.3383342,20.7146583 80.96,20.2 C84.39,16.2 87.81,11.2 89.38,9.08 L92.22,10.61 C89.89,15.46 90.15,21 88.94,24.61 C90.6327236,23.4408422 92.1656627,22.0558183 93.5,20.49 L93.75,20.2 C94.3903724,20.4149643 94.9098751,20.8908723 95.18,21.51 C92.28,24.83 88.46,27.93 84.59,28.4 L84.48,28.4 C84.1284855,28.4468984 83.7745717,28.4736088 83.42,28.48 C81.5002752,28.558266 79.7801368,27.3023578 79.27,25.45 L79.27,25.45 Z" id="Shape" sketch:type="MSShapeGroup"></path>
                <path d="M97.17,8.09 L100.59,8.09 L104.17,1.93 L107.96,1.93 L104.39,8.12 L107.52,8.12 L106.43,9.93 L103.33,9.93 L95.2,24.1 C94.32,25.59 94.8,26.17 95.64,26.17 C97.31,26.17 99.98,23.66 102.71,20.49 L102.96,20.2 C103.557462,20.4830685 104.055783,20.9395724 104.39,21.51 C101.25,25.15 97.64,28.51 94.51,28.51 C91.38,28.51 90.31,25.93 91.96,23.11 L99.54,9.93 L96.07,9.93 L97.17,8.09 Z" id="Shape" sketch:type="MSShapeGroup"></path>
            </g>
        </g>
    </g>
</svg>