<?xml version="1.0" encoding="UTF-8"?>
<svg width="108px" height="31px" viewBox="0 0 108 31" version="1.1" xmlns="http://www.w3.org/2000/svg" xmlns:xlink="http://www.w3.org/1999/xlink" xmlns:sketch="http://www.bohemiancoding.com/sketch/ns">
    <!-- Generator: Sketch 3.4.2 (15855) - http://www.bohemiancoding.com/sketch -->
    <title>Ballast</title>
    <desc>Created with Sketch.</desc>
    <defs></defs>
    <g id="Page-1" stroke="none" stroke-width="1" fill="none" fill-rule="evenodd" sketch:type="MSPage">
        <path d="M5.256,11.008 C-2.592,16.012 -0.288,30.448 12.816,30.448 C24.012,30.448 29.196,17.02 21.996,12.232 C29.556,9.676 30.132,0.208 22.68,0.208 C20.628,0.208 18.18,1.648 16.488,4.6 L6.408,22.024 C5.94,22.852 5.472,23.536 4.968,24.148 C2.376,20.584 3.132,15.256 6.768,12.916 L5.256,11.008 Z M12.744,27.568 C10.512,27.568 8.748,27.064 7.344,26.272 C7.992,25.516 8.64,24.58 9.216,23.608 L15.516,12.7 L16.524,12.808 C25.308,14.644 21.816,27.568 12.744,27.568 L12.744,27.568 Z M19.8,5.32 C22.536,0.604 26.028,3.376 24.156,6.904 C22.716,9.604 20.592,10.432 16.776,10.504 L19.8,5.32 Z M44.748,20.44 C42.048,23.572 39.42,26.056 37.764,26.056 C36.936,26.056 36.468,25.48 37.332,24.004 L43.38,13.42 L41.256,13.42 C41.4,11.836 39.78,9.64 37.332,9.64 C35.316,9.64 32.508,11.224 30.924,13.96 L25.668,23.032 C24.084,25.804 25.2,28.36 28.224,28.36 C29.736,28.36 31.608,27.388 33.408,25.912 C33.588,27.352 34.74,28.36 36.648,28.36 C39.744,28.36 43.308,25.048 46.404,21.448 C46.152,20.944 45.504,20.368 45,20.152 L44.748,20.44 Z M34.128,14.896 C36.144,11.404 40.14,12.304 38.304,15.688 L35.388,20.8 C33.12,24.364 30.888,26.056 29.34,26.056 C28.512,26.056 28.044,25.48 28.908,24.004 L34.128,14.896 Z M54,20.44 C51.3,23.572 48.672,26.056 47.016,26.056 C46.188,26.056 45.72,25.48 46.584,24.004 L59.184,2.08 L55.44,2.08 L43.344,23.032 C41.76,25.804 42.876,28.36 45.9,28.36 C48.996,28.36 52.56,25.048 55.656,21.448 C55.404,20.944 54.756,20.368 54.252,20.152 L54,20.44 Z M63.252,20.44 C60.552,23.572 57.924,26.056 56.268,26.056 C55.44,26.056 54.972,25.48 55.836,24.004 L68.436,2.08 L64.692,2.08 L52.596,23.032 C51.012,25.804 52.128,28.36 55.152,28.36 C58.248,28.36 61.812,25.048 64.908,21.448 C64.656,20.944 64.008,20.368 63.504,20.152 L63.252,20.44 Z M80.928,20.44 C78.228,23.572 75.6,26.056 73.944,26.056 C73.116,26.056 72.648,25.48 73.512,24.004 L79.56,13.42 L77.436,13.42 C77.58,11.836 75.96,9.64 73.512,9.64 C71.496,9.64 68.688,11.224 67.104,13.96 L61.848,23.032 C60.264,25.804 61.38,28.36 64.404,28.36 C65.916,28.36 67.788,27.388 69.588,25.912 C69.768,27.352 70.92,28.36 72.828,28.36 C75.924,28.36 79.488,25.048 82.584,21.448 C82.332,20.944 81.684,20.368 81.18,20.152 L80.928,20.44 Z M70.308,14.896 C72.324,11.404 76.32,12.304 74.484,15.688 L71.568,20.8 C69.3,24.364 67.068,26.056 65.52,26.056 C64.692,26.056 64.224,25.48 65.088,24.004 L70.308,14.896 Z M83.664,28.36 C84.024,28.36 84.348,28.324 84.708,28.288 C84.744,28.288 84.78,28.252 84.816,28.252 C88.632,27.748 92.412,24.724 95.22,21.448 C95.004,20.872 94.356,20.296 93.816,20.152 L93.564,20.44 C92.196,22.06 90.54,23.5 89.064,24.508 C90.252,20.944 90,15.472 92.304,10.684 L89.496,9.172 C87.948,11.296 84.564,16.192 81.18,20.152 C81.504,20.62 82.044,21.088 82.584,21.448 C84.708,19 86.58,16.372 87.912,14.608 C86.436,18.496 87.228,25.48 83.664,25.48 C82.404,25.48 81.9,24.112 81.9,24.112 L79.56,25.336 C79.56,25.336 80.244,28.36 83.664,28.36 L83.664,28.36 Z M96.264,10 L99.684,10 L92.16,23.032 C90.576,25.804 91.692,28.36 94.716,28.36 C97.812,28.36 101.376,25.048 104.472,21.448 C104.22,20.944 103.572,20.368 103.068,20.152 L102.816,20.44 C100.116,23.572 97.488,26.056 95.832,26.056 C95.004,26.056 94.536,25.48 95.4,24.004 L103.428,10 L106.488,10 L107.568,8.2 L104.472,8.2 L108,2.08 L104.256,2.08 L100.728,8.2 L97.344,8.2 L96.264,10 Z" id="Ballast" fill="#000000" sketch:type="MSShapeGroup"></path>
    </g>
</svg>