<?xml version="1.0" encoding="UTF-8"?>
<svg width="108px" height="31px" viewBox="0 0 108 31" version="1.1" xmlns="http://www.w3.org/2000/svg" xmlns:xlink="http://www.w3.org/1999/xlink" xmlns:sketch="http://www.bohemiancoding.com/sketch/ns">
    <!-- Generator: Sketch 3.4.2 (15855) - http://www.bohemiancoding.com/sketch -->
    <title>Ballast</title>
    <desc>Created with Sketch.</desc>
    <defs></defs>
    <g id="Page-1" stroke="none" stroke-width="1" fill="none" fill-rule="evenodd" sketch:type="MSPage">
        <g id="128" sketch:type="MSArtboardGroup" transform="translate(-10.000000, -3.000000)" fill="#ECECEC">
            <path d="M14.5134257,13.8 C6.66542573,18.804 8.96942573,33.24 22.0734257,33.24 C33.2694257,33.24 38.4534257,19.812 31.2534257,15.024 C38.8134257,12.468 39.3894257,3 31.9374257,3 C29.8854257,3 27.4374257,4.44 25.7454257,7.392 L15.6654257,24.816 C15.1974257,25.644 14.7294257,26.328 14.2254257,26.94 C11.6334257,23.376 12.3894257,18.048 16.0254257,15.708 L14.5134257,13.8 Z M22.0014257,30.36 C19.7694257,30.36 18.0054257,29.856 16.6014257,29.064 C17.2494257,28.308 17.8974257,27.372 18.4734257,26.4 L24.7734257,15.492 L25.7814257,15.6 C34.5654257,17.436 31.0734257,30.36 22.0014257,30.36 L22.0014257,30.36 Z M29.0574257,8.112 C31.7934257,3.396 35.2854257,6.168 33.4134257,9.696 C31.9734257,12.396 29.8494257,13.224 26.0334257,13.296 L29.0574257,8.112 Z M54.0054257,23.232 C51.3054257,26.364 48.6774257,28.848 47.0214257,28.848 C46.1934257,28.848 45.7254257,28.272 46.5894257,26.796 L52.6374257,16.212 L50.5134257,16.212 C50.6574257,14.628 49.0374257,12.432 46.5894257,12.432 C44.5734257,12.432 41.7654257,14.016 40.1814257,16.752 L34.9254257,25.824 C33.3414257,28.596 34.4574257,31.152 37.4814257,31.152 C38.9934257,31.152 40.8654257,30.18 42.6654257,28.704 C42.8454257,30.144 43.9974257,31.152 45.9054257,31.152 C49.0014257,31.152 52.5654257,27.84 55.6614257,24.24 C55.4094257,23.736 54.7614257,23.16 54.2574257,22.944 L54.0054257,23.232 Z M43.3854257,17.688 C45.4014257,14.196 49.3974257,15.096 47.5614257,18.48 L44.6454257,23.592 C42.3774257,27.156 40.1454257,28.848 38.5974257,28.848 C37.7694257,28.848 37.3014257,28.272 38.1654257,26.796 L43.3854257,17.688 Z M63.2574257,23.232 C60.5574257,26.364 57.9294257,28.848 56.2734257,28.848 C55.4454257,28.848 54.9774257,28.272 55.8414257,26.796 L68.4414257,4.872 L64.6974257,4.872 L52.6014257,25.824 C51.0174257,28.596 52.1334257,31.152 55.1574257,31.152 C58.2534257,31.152 61.8174257,27.84 64.9134257,24.24 C64.6614257,23.736 64.0134257,23.16 63.5094257,22.944 L63.2574257,23.232 Z M72.5094257,23.232 C69.8094257,26.364 67.1814257,28.848 65.5254257,28.848 C64.6974257,28.848 64.2294257,28.272 65.0934257,26.796 L77.6934257,4.872 L73.9494257,4.872 L61.8534257,25.824 C60.2694257,28.596 61.3854257,31.152 64.4094257,31.152 C67.5054257,31.152 71.0694257,27.84 74.1654257,24.24 C73.9134257,23.736 73.2654257,23.16 72.7614257,22.944 L72.5094257,23.232 Z M90.1854257,23.232 C87.4854257,26.364 84.8574257,28.848 83.2014257,28.848 C82.3734257,28.848 81.9054257,28.272 82.7694257,26.796 L88.8174257,16.212 L86.6934257,16.212 C86.8374257,14.628 85.2174257,12.432 82.7694257,12.432 C80.7534257,12.432 77.9454257,14.016 76.3614257,16.752 L71.1054257,25.824 C69.5214257,28.596 70.6374257,31.152 73.6614257,31.152 C75.1734257,31.152 77.0454257,30.18 78.8454257,28.704 C79.0254257,30.144 80.1774257,31.152 82.0854257,31.152 C85.1814257,31.152 88.7454257,27.84 91.8414257,24.24 C91.5894257,23.736 90.9414257,23.16 90.4374257,22.944 L90.1854257,23.232 Z M79.5654257,17.688 C81.5814257,14.196 85.5774257,15.096 83.7414257,18.48 L80.8254257,23.592 C78.5574257,27.156 76.3254257,28.848 74.7774257,28.848 C73.9494257,28.848 73.4814257,28.272 74.3454257,26.796 L79.5654257,17.688 Z M92.9214257,31.152 C93.2814257,31.152 93.6054257,31.116 93.9654257,31.08 C94.0014257,31.08 94.0374257,31.044 94.0734257,31.044 C97.8894257,30.54 101.669426,27.516 104.477426,24.24 C104.261426,23.664 103.613426,23.088 103.073426,22.944 L102.821426,23.232 C101.453426,24.852 99.7974257,26.292 98.3214257,27.3 C99.5094257,23.736 99.2574257,18.264 101.561426,13.476 L98.7534257,11.964 C97.2054257,14.088 93.8214257,18.984 90.4374257,22.944 C90.7614257,23.412 91.3014257,23.88 91.8414257,24.24 C93.9654257,21.792 95.8374257,19.164 97.1694257,17.4 C95.6934257,21.288 96.4854257,28.272 92.9214257,28.272 C91.6614257,28.272 91.1574257,26.904 91.1574257,26.904 L88.8174257,28.128 C88.8174257,28.128 89.5014257,31.152 92.9214257,31.152 L92.9214257,31.152 Z M105.521426,12.792 L108.941426,12.792 L101.417426,25.824 C99.8334257,28.596 100.949426,31.152 103.973426,31.152 C107.069426,31.152 110.633426,27.84 113.729426,24.24 C113.477426,23.736 112.829426,23.16 112.325426,22.944 L112.073426,23.232 C109.373426,26.364 106.745426,28.848 105.089426,28.848 C104.261426,28.848 103.793426,28.272 104.657426,26.796 L112.685426,12.792 L115.745426,12.792 L116.825426,10.992 L113.729426,10.992 L117.257426,4.872 L113.513426,4.872 L109.985426,10.992 L106.601426,10.992 L105.521426,12.792 Z" id="Ballast" sketch:type="MSShapeGroup"></path>
        </g>
    </g>
</svg>