<?xml version="1.0" encoding="UTF-8"?>
<svg width="120px" height="50px" viewBox="0 0 120 50" version="1.1" xmlns="http://www.w3.org/2000/svg" xmlns:xlink="http://www.w3.org/1999/xlink" xmlns:sketch="http://www.bohemiancoding.com/sketch/ns">
    <!-- Generator: Sketch 3.4.2 (15855) - http://www.bohemiancoding.com/sketch -->
    <title>iPad Pro Portrait</title>
    <desc>Created with Sketch.</desc>
    <defs></defs>
    <g id="Page-1" stroke="none" stroke-width="1" fill="none" fill-rule="evenodd" sketch:type="MSPage">
        <g id="iPad-Pro-Portrait" sketch:type="MSArtboardGroup" fill="#000000">
            <path d="M10.5134257,17.8 C2.66542573,22.804 4.96942573,37.24 18.0734257,37.24 C29.2694257,37.24 34.4534257,23.812 27.2534257,19.024 C34.8134257,16.468 35.3894257,7 27.9374257,7 C25.8854257,7 23.4374257,8.44 21.7454257,11.392 L11.6654257,28.816 C11.1974257,29.644 10.7294257,30.328 10.2254257,30.94 C7.63342573,27.376 8.38942573,22.048 12.0254257,19.708 L10.5134257,17.8 Z M18.0014257,34.36 C15.7694257,34.36 14.0054257,33.856 12.6014257,33.064 C13.2494257,32.308 13.8974257,31.372 14.4734257,30.4 L20.7734257,19.492 L21.7814257,19.6 C30.5654257,21.436 27.0734257,34.36 18.0014257,34.36 L18.0014257,34.36 Z M25.0574257,12.112 C27.7934257,7.396 31.2854257,10.168 29.4134257,13.696 C27.9734257,16.396 25.8494257,17.224 22.0334257,17.296 L25.0574257,12.112 Z M50.0054257,27.232 C47.3054257,30.364 44.6774257,32.848 43.0214257,32.848 C42.1934257,32.848 41.7254257,32.272 42.5894257,30.796 L48.6374257,20.212 L46.5134257,20.212 C46.6574257,18.628 45.0374257,16.432 42.5894257,16.432 C40.5734257,16.432 37.7654257,18.016 36.1814257,20.752 L30.9254257,29.824 C29.3414257,32.596 30.4574257,35.152 33.4814257,35.152 C34.9934257,35.152 36.8654257,34.18 38.6654257,32.704 C38.8454257,34.144 39.9974257,35.152 41.9054257,35.152 C45.0014257,35.152 48.5654257,31.84 51.6614257,28.24 C51.4094257,27.736 50.7614257,27.16 50.2574257,26.944 L50.0054257,27.232 Z M39.3854257,21.688 C41.4014257,18.196 45.3974257,19.096 43.5614257,22.48 L40.6454257,27.592 C38.3774257,31.156 36.1454257,32.848 34.5974257,32.848 C33.7694257,32.848 33.3014257,32.272 34.1654257,30.796 L39.3854257,21.688 Z M59.2574257,27.232 C56.5574257,30.364 53.9294257,32.848 52.2734257,32.848 C51.4454257,32.848 50.9774257,32.272 51.8414257,30.796 L64.4414257,8.872 L60.6974257,8.872 L48.6014257,29.824 C47.0174257,32.596 48.1334257,35.152 51.1574257,35.152 C54.2534257,35.152 57.8174257,31.84 60.9134257,28.24 C60.6614257,27.736 60.0134257,27.16 59.5094257,26.944 L59.2574257,27.232 Z M68.5094257,27.232 C65.8094257,30.364 63.1814257,32.848 61.5254257,32.848 C60.6974257,32.848 60.2294257,32.272 61.0934257,30.796 L73.6934257,8.872 L69.9494257,8.872 L57.8534257,29.824 C56.2694257,32.596 57.3854257,35.152 60.4094257,35.152 C63.5054257,35.152 67.0694257,31.84 70.1654257,28.24 C69.9134257,27.736 69.2654257,27.16 68.7614257,26.944 L68.5094257,27.232 Z M86.1854257,27.232 C83.4854257,30.364 80.8574257,32.848 79.2014257,32.848 C78.3734257,32.848 77.9054257,32.272 78.7694257,30.796 L84.8174257,20.212 L82.6934257,20.212 C82.8374257,18.628 81.2174257,16.432 78.7694257,16.432 C76.7534257,16.432 73.9454257,18.016 72.3614257,20.752 L67.1054257,29.824 C65.5214257,32.596 66.6374257,35.152 69.6614257,35.152 C71.1734257,35.152 73.0454257,34.18 74.8454257,32.704 C75.0254257,34.144 76.1774257,35.152 78.0854257,35.152 C81.1814257,35.152 84.7454257,31.84 87.8414257,28.24 C87.5894257,27.736 86.9414257,27.16 86.4374257,26.944 L86.1854257,27.232 Z M75.5654257,21.688 C77.5814257,18.196 81.5774257,19.096 79.7414257,22.48 L76.8254257,27.592 C74.5574257,31.156 72.3254257,32.848 70.7774257,32.848 C69.9494257,32.848 69.4814257,32.272 70.3454257,30.796 L75.5654257,21.688 Z M88.9214257,35.152 C89.2814257,35.152 89.6054257,35.116 89.9654257,35.08 C90.0014257,35.08 90.0374257,35.044 90.0734257,35.044 C93.8894257,34.54 97.6694257,31.516 100.477426,28.24 C100.261426,27.664 99.6134257,27.088 99.0734257,26.944 L98.8214257,27.232 C97.4534257,28.852 95.7974257,30.292 94.3214257,31.3 C95.5094257,27.736 95.2574257,22.264 97.5614257,17.476 L94.7534257,15.964 C93.2054257,18.088 89.8214257,22.984 86.4374257,26.944 C86.7614257,27.412 87.3014257,27.88 87.8414257,28.24 C89.9654257,25.792 91.8374257,23.164 93.1694257,21.4 C91.6934257,25.288 92.4854257,32.272 88.9214257,32.272 C87.6614257,32.272 87.1574257,30.904 87.1574257,30.904 L84.8174257,32.128 C84.8174257,32.128 85.5014257,35.152 88.9214257,35.152 L88.9214257,35.152 Z M101.521426,16.792 L104.941426,16.792 L97.4174257,29.824 C95.8334257,32.596 96.9494257,35.152 99.9734257,35.152 C103.069426,35.152 106.633426,31.84 109.729426,28.24 C109.477426,27.736 108.829426,27.16 108.325426,26.944 L108.073426,27.232 C105.373426,30.364 102.745426,32.848 101.089426,32.848 C100.261426,32.848 99.7934257,32.272 100.657426,30.796 L108.685426,16.792 L111.745426,16.792 L112.825426,14.992 L109.729426,14.992 L113.257426,8.872 L109.513426,8.872 L105.985426,14.992 L102.601426,14.992 L101.521426,16.792 Z" id="Ballast" sketch:type="MSShapeGroup"></path>
        </g>
    </g>
</svg>