<svg id="Layer_1" data-name="Layer 1" xmlns="http://www.w3.org/2000/svg" viewBox="0 0 107.96 30.62"><title>ballast_logo</title><path d="M7.14,12.94C3.46,15.31,2.69,20.7,5.32,24.31a15.16,15.16,0,0,0,1.46-2.15L17,4.52c1.72-3,4.2-4.45,6.27-4.45,7.55,0,7,9.59-.69,12.18,7.29,4.84,2,18.44-9.29,18.44C0,30.69-2.34,16.07,5.61,11ZM17,12.83l-1-.11-6.38,11a19.62,19.62,0,0,1-1.89,2.69,10.79,10.79,0,0,0,5.46,1.32C22.38,27.78,25.92,14.69,17,12.83Zm.26-2.33c3.86-.08,6-.91,7.47-3.65,1.89-3.57-1.64-6.38-4.41-1.6Z" transform="translate(-1.04 -0.07)"/><path d="M45.75,20.27a3.26,3.26,0,0,1,1.42,1.31c-3.14,3.64-6.74,7-9.88,7-1.93,0-3.1-1-3.28-2.48-1.82,1.49-3.72,2.48-5.25,2.48-3.06,0-4.19-2.59-2.59-5.4L31.5,14c1.6-2.77,4.44-4.38,6.48-4.38a4,4,0,0,1,4,3.83h2.15L38,24.17c-.87,1.49-.4,2.07.44,2.07,1.68,0,4.34-2.51,7.07-5.68Zm-16.3,3.9c-.87,1.49-.4,2.07.44,2.07,1.57,0,3.83-1.71,6.13-5.32L39,15.75c1.86-3.43-2.19-4.34-4.23-.81Z" transform="translate(-1.04 -0.07)"/><path d="M55,20.27a3.21,3.21,0,0,1,1.42,1.31c-3.13,3.64-6.74,7-9.88,7S42.36,26,44,23.18L56.21,2H60L47.24,24.17c-.87,1.49-.4,2.07.44,2.07,1.68,0,4.34-2.51,7.07-5.68Z" transform="translate(-1.04 -0.07)"/><path d="M64.27,20.27a3.26,3.26,0,0,1,1.42,1.31c-3.14,3.64-6.74,7-9.88,7s-4.19-2.59-2.59-5.4L65.47,2h3.79L56.5,24.17c-.87,1.49-.4,2.07.44,2.07,1.68,0,4.34-2.51,7.07-5.68Z" transform="translate(-1.04 -0.07)"/><path d="M82.06,20.27a3.26,3.26,0,0,1,1.42,1.31c-3.14,3.64-6.75,7-9.88,7-1.93,0-3.1-1-3.28-2.48-1.82,1.49-3.72,2.48-5.25,2.48-3.06,0-4.19-2.59-2.59-5.4L67.8,14c1.61-2.77,4.45-4.38,6.49-4.38a4,4,0,0,1,4,3.83h2.15L74.29,24.17c-.87,1.49-.4,2.07.44,2.07,1.68,0,4.34-2.51,7.07-5.68Zm-16.3,3.9c-.87,1.49-.4,2.07.44,2.07,1.57,0,3.83-1.71,6.12-5.32l3-5.17c1.86-3.43-2.19-4.34-4.23-.81Z" transform="translate(-1.04 -0.07)"/><path d="M80.31,25.52l2.37-1.24a2.11,2.11,0,0,0,1.78,1.38c3.61,0,2.81-7.07,4.31-11-1.35,1.79-3.25,4.45-5.4,6.93A5.62,5.62,0,0,1,82,20.27c3.43-4,6.85-9,8.42-11.12l2.84,1.53c-2.33,4.85-2.07,10.39-3.28,14a23.65,23.65,0,0,0,4.56-4.12l.25-.29a2.39,2.39,0,0,1,1.43,1.31C93.32,24.9,89.5,28,85.63,28.47c0,0-.07,0-.11,0a9.28,9.28,0,0,1-1.06.08A4.13,4.13,0,0,1,80.31,25.52Z" transform="translate(-1.04 -0.07)"/><path d="M98.21,8.16h3.42L105.21,2H109l-3.57,6.19h3.13L107.47,10h-3.1L96.24,24.17c-.88,1.49-.4,2.07.44,2.07,1.67,0,4.34-2.51,7.07-5.68l.25-.29a3.29,3.29,0,0,1,1.43,1.31c-3.14,3.64-6.75,7-9.88,7S91.35,26,93,23.18L100.58,10H97.11Z" transform="translate(-1.04 -0.07)"/></svg>