<svg xmlns="http://www.w3.org/2000/svg" width="350" height="278"><defs><linearGradient x1="50%" y1="100%" x2="50%" y2="3.67537947e-14%" id="A"><stop stop-color="gray" stop-opacity=".25" offset="0%"/><stop stop-color="gray" stop-opacity=".12" offset="54%"/><stop stop-color="gray" stop-opacity=".1" offset="100%"/></linearGradient><linearGradient x1="-17529%" y1="15773%" x2="-17529%" y2="307%" id="B"><stop stop-color="gray" stop-opacity=".25" offset="0%"/><stop stop-color="gray" stop-opacity=".12" offset="54%"/><stop stop-color="gray" stop-opacity=".1" offset="100%"/></linearGradient><linearGradient x1="-24629%" y1="45625%" x2="-24629%" y2="30159%" id="C"><stop stop-color="gray" stop-opacity=".25" offset="0%"/><stop stop-color="gray" stop-opacity=".12" offset="54%"/><stop stop-color="gray" stop-opacity=".1" offset="100%"/></linearGradient><linearGradient x1="6000%" y1="22617%" x2="6000%" y2="7151%" id="D"><stop stop-color="gray" stop-opacity=".25" offset="0%"/><stop stop-color="gray" stop-opacity=".12" offset="54%"/><stop stop-color="gray" stop-opacity=".1" offset="100%"/></linearGradient><linearGradient x1="43566%" y1="69121%" x2="43566%" y2="921%" id="E"><stop stop-color="gray" stop-opacity=".25" offset="0%"/><stop stop-color="gray" stop-opacity=".12" offset="54%"/><stop stop-color="gray" stop-opacity=".1" offset="100%"/></linearGradient><linearGradient x1="43566%" y1="54471%" x2="43566%" y2="6959%" id="F"><stop stop-color="gray" stop-opacity=".25" offset="0%"/><stop stop-color="gray" stop-opacity=".12" offset="54%"/><stop stop-color="gray" stop-opacity=".1" offset="100%"/></linearGradient><linearGradient x1="60030%" y1="78669%" x2="60030%" y2="56596%" id="G"><stop stop-color="gray" stop-opacity=".25" offset="0%"/><stop stop-color="gray" stop-opacity=".12" offset="54%"/><stop stop-color="gray" stop-opacity=".1" offset="100%"/></linearGradient></defs><g fill-rule="evenodd"><path d="M.39 169.844l96.8-28.857 17.735 59.5-96.8 28.857-17.735-59.5z" fill="url(#A)"/><path d="M2.016 170.966l93.52-27.88 16.55 55.52-93.52 27.88-16.55-55.52z" fill="#fff"/><path d="M21.876 179.226L9.98 182.772l-2.625-8.805 11.897-3.547 2.625 8.805zm48.656 4.147l-45.688 13.62-.85-2.854 45.688-13.62.85 2.854zm1.845 6.183l-33.314 9.93-.568-1.904 33.314-9.93.568 1.904z" fill="#f55f44"/><path d="M236.168 60.934L248.034.002 347.182 19.3l-11.866 60.932-99.148-19.308z" fill="url(#B)"/><path d="M237.88 58.624l11.074-56.866L344.74 20.41l-11.074 56.866-95.787-18.654z" fill="#fff"/><path d="M262.683 18.282l-12.186-2.373 1.756-9.018 12.186 2.373-1.756 9.018zM303.87 44.52l-46.796-9.113.57-2.923 46.796 9.113-.57 2.923zm-1.23 6.34l-34.122-6.645.38-1.95L303.02 48.9l-.38 1.95z" fill="#f55f44"/><path d="M252.742 145.013l56.95-24.703 40.197 92.668-56.95 24.703-40.197-92.668z" fill="url(#C)"/><path d="M255.613 145.115l53.15-23.055 38.834 89.527-53.15 23.055-38.834-89.527z" fill="#fff"/><path d="M302.898 142.748l-4.94-11.4 8.43-3.656 4.94 11.4-8.43 3.656zm1.68 48.802l-18.972-43.738 2.732-1.185 18.972 43.738-2.732 1.185zm-5.922 2.567l-13.834-31.892 1.823-.8 13.834 31.892-1.823.8z" fill="#47e6b1"/><path d="M27.354 34.203l95.2-33.768 20.752 58.505-95.2 33.768-20.752-58.505z" fill="url(#D)"/><path d="M29.04 35.248L121.01 2.624l19.368 54.6L48.407 89.85l-19.368-54.6z" fill="#fff"/><path d="M49.266 42.504l-11.7 4.15-3.07-8.66 11.7-4.15 3.07 8.66zm48.804 1.66l-44.932 15.94-.996-2.807 44.933-15.938.996 2.807zm2.158 6.082l-32.763 11.62-.664-1.873 32.763-11.62.664 1.873z" fill="#6c63ff"/><path d="M175.265 3.697L57.662 114.408v163.027h235.202V114.408L175.265 3.697z" fill="url(#E)"/><path d="M291.672 273.86H58.854V114.143l116.41-108.46 116.407 108.46V273.86z" fill="#fff"/><path fill="url(#F)" d="M94.215 27.932H256.31v190.702H94.215z"/><path fill="#fff" d="M96.262 29.52h158.002v189.112H96.262z"/><path d="M58.854 114.143L175.265 194l-116.41 79.86V114.143zm232.818 0L175.265 194l116.407 79.858V114.143z" fill="#f5f5f5"/><path d="M58.854 273.855l111.84-87.014a7.38 7.38 0 0 1 9.131 0l111.847 87.014H58.854z" fill="url(#G)"/><path d="M58.854 273.855l111.84-83.213a7.65 7.65 0 0 1 9.131 0l111.847 83.213H58.854z" fill="#fff"/><path fill="#47e6b1" d="M120.236 66.07h32.977v5.563h-32.977z"/><path d="M120.236 80.773H230.3v5.563H120.236zm0 9.533H230.3v5.563H120.236zm0 9.536H230.3v5.563H120.236zm0 9.533H230.3v5.563H120.236zm0 9.537h50.06v5.563h-50.06z" fill="#f5f5f5"/><path fill="#6c63ff" d="M180.23 118.912h50.06v5.563h-50.06z"/></g></svg>